<svg width="243" height="43" viewBox="0 0 243 43" fill="none" xmlns="http://www.w3.org/2000/svg">
<rect width="21.0158" height="21.0158" transform="matrix(0.866025 0.5 -5.16191e-08 1 2.48779 10.5134)" fill="#793AFF"/>
<rect width="21.0158" height="21.0158" transform="matrix(0.866025 -0.5 0 1 20.6882 21.0214)" fill="#0A0913"/>
<path d="M25.9312 28.5021L33.6453 19.5946L33.6453 28.5021L25.9312 28.5021Z" fill="white"/>
<rect width="21.0604" height="21.0158" transform="matrix(0.866025 -0.5 0.866637 0.498939 2.43701 10.558)" fill="url(#paint0_linear_4733_14838)"/>
<path d="M64.832 31.288C62.5067 31.288 60.4587 30.8187 58.688 29.88C56.9387 28.9413 55.5733 27.576 54.592 25.784C53.6107 23.992 53.12 21.8373 53.12 19.32C53.12 16.8027 53.6107 14.6587 54.592 12.888C55.5733 11.096 56.9387 9.73067 58.688 8.792C60.4587 7.85333 62.5067 7.384 64.832 7.384C66.8373 7.384 68.6187 7.736 70.176 8.44C71.7333 9.12267 72.992 10.0933 73.952 11.352C74.912 12.5893 75.4987 14.04 75.712 15.704H70.656C70.3787 14.5093 69.7173 13.5387 68.672 12.792C67.648 12.024 66.368 11.64 64.832 11.64C62.8267 11.64 61.2267 12.28 60.032 13.56C58.8587 14.84 58.272 16.76 58.272 19.32C58.272 21.9013 58.8587 23.832 60.032 25.112C61.2267 26.392 62.8267 27.032 64.832 27.032C66.3253 27.032 67.6053 26.6587 68.672 25.912C69.7387 25.1653 70.4 24.1733 70.656 22.936H75.712C75.52 24.6 74.9333 26.0613 73.952 27.32C72.9707 28.5787 71.6907 29.56 70.112 30.264C68.5547 30.9467 66.7947 31.288 64.832 31.288ZM86.5688 31.288C84.8621 31.288 83.3581 30.936 82.0568 30.232C80.7554 29.528 79.7421 28.5147 79.0168 27.192C78.3128 25.8693 77.9608 24.28 77.9608 22.424C77.9608 20.6533 78.3021 19.1067 78.9848 17.784C79.6674 16.44 80.6488 15.3947 81.9288 14.648C83.2088 13.9013 84.7554 13.528 86.5688 13.528C88.2754 13.528 89.7688 13.88 91.0488 14.584C92.3501 15.288 93.3528 16.312 94.0568 17.656C94.7821 18.9787 95.1448 20.568 95.1448 22.424C95.1448 24.1947 94.8034 25.752 94.1208 27.096C93.4381 28.4187 92.4568 29.4533 91.1768 30.2C89.9181 30.9253 88.3821 31.288 86.5688 31.288ZM86.5368 27.48C87.6888 27.48 88.6168 27.064 89.3208 26.232C90.0248 25.4 90.3768 24.1307 90.3768 22.424C90.3768 20.7173 90.0354 19.448 89.3528 18.616C88.6701 17.784 87.7421 17.368 86.5688 17.368C85.3954 17.368 84.4568 17.784 83.7528 18.616C83.0488 19.448 82.6968 20.7173 82.6968 22.424C82.6968 24.1093 83.0381 25.3787 83.7208 26.232C84.4248 27.064 85.3634 27.48 86.5368 27.48ZM104.093 31.288C102.109 31.288 100.594 30.712 99.549 29.56C98.5037 28.408 97.981 26.7333 97.981 24.536V13.848H102.685V23.288C102.685 24.6533 102.93 25.6987 103.421 26.424C103.933 27.128 104.776 27.48 105.949 27.48C107.144 27.48 108.061 27.0747 108.701 26.264C109.362 25.432 109.693 24.4507 109.693 23.32V13.848H114.397V31H109.885L109.693 27.864H109.469C109.064 28.9733 108.37 29.8267 107.389 30.424C106.429 31 105.33 31.288 104.093 31.288ZM118.266 31V13.848H122.522L122.714 16.6H122.874C123.258 15.4907 123.866 14.7227 124.698 14.296C125.551 13.848 126.522 13.624 127.61 13.624H128.57V18.04H127.514C125.935 18.04 124.794 18.392 124.09 19.096C123.386 19.7787 123.013 20.76 122.97 22.04V31H118.266ZM137.709 31.32C135.213 31.32 133.282 30.7973 131.917 29.752C130.573 28.6853 129.911 27.2987 129.933 25.592H134.541C134.562 26.5093 134.882 27.1707 135.501 27.576C136.141 27.96 136.919 28.152 137.837 28.152C138.797 28.152 139.522 27.992 140.013 27.672C140.503 27.3307 140.749 26.872 140.749 26.296C140.749 25.5067 140.461 24.9947 139.885 24.76C139.33 24.5253 138.445 24.3227 137.229 24.152C135.97 23.9813 134.818 23.736 133.773 23.416C132.727 23.0747 131.895 22.5627 131.277 21.88C130.679 21.1973 130.381 20.2267 130.381 18.968C130.381 17.1547 131.063 15.8 132.429 14.904C133.815 13.9867 135.629 13.528 137.869 13.528C140.066 13.528 141.815 14.008 143.117 14.968C144.418 15.9067 145.09 17.2293 145.133 18.936H140.525C140.525 18.2107 140.269 17.656 139.757 17.272C139.266 16.888 138.594 16.696 137.741 16.696C136.866 16.696 136.205 16.8667 135.757 17.208C135.309 17.528 135.085 17.9547 135.085 18.488C135.085 19.128 135.373 19.576 135.949 19.832C136.525 20.088 137.442 20.3013 138.701 20.472C139.597 20.6 140.45 20.76 141.261 20.952C142.071 21.1227 142.786 21.4 143.405 21.784C144.045 22.1467 144.546 22.6587 144.909 23.32C145.293 23.96 145.485 24.8027 145.485 25.848C145.485 27.7253 144.791 29.112 143.405 30.008C142.018 30.8827 140.119 31.32 137.709 31.32ZM156.255 31.288C154.463 31.288 152.927 30.9253 151.647 30.2C150.388 29.4747 149.417 28.4613 148.735 27.16C148.052 25.8373 147.711 24.3013 147.711 22.552C147.711 20.696 148.052 19.096 148.735 17.752C149.439 16.408 150.42 15.3733 151.679 14.648C152.937 13.9013 154.409 13.528 156.095 13.528C158.079 13.528 159.711 13.9653 160.991 14.84C162.271 15.6933 163.188 16.8773 163.743 18.392C164.297 19.8853 164.479 21.5813 164.287 23.48H152.351C152.329 24.8453 152.681 25.9013 153.407 26.648C154.132 27.3733 155.081 27.736 156.255 27.736C157.151 27.736 157.908 27.544 158.527 27.16C159.167 26.7547 159.572 26.2213 159.743 25.56H164.191C164.041 26.712 163.604 27.7147 162.879 28.568C162.175 29.4213 161.257 30.0933 160.127 30.584C158.996 31.0533 157.705 31.288 156.255 31.288ZM156.095 17.08C155.028 17.08 154.164 17.3893 153.503 18.008C152.841 18.6053 152.468 19.4267 152.383 20.472H159.679C159.615 19.32 159.241 18.4667 158.559 17.912C157.897 17.3573 157.076 17.08 156.095 17.08ZM167.36 31V7.672H172.064V31H167.36ZM176.11 11.64V7.672H180.814V11.64H176.11ZM176.11 31V13.848H180.814V31H176.11ZM186.076 31V17.624H183.26V13.848H186.076V12.024C186.076 10.616 186.513 9.53867 187.388 8.792C188.262 8.04533 189.5 7.672 191.1 7.672H194.556V10.84H192.476C191.814 10.84 191.366 10.9787 191.132 11.256C190.897 11.5333 190.78 11.8853 190.78 12.312V13.848H194.268V17.624H190.78V31H186.076ZM196.223 36.344V32.472H198.207C198.911 32.472 199.465 32.3227 199.871 32.024C200.297 31.7467 200.617 31.3093 200.831 30.712L201.247 29.656L194.687 13.848H199.839L202.975 23.032L203.519 24.856H203.679L204.191 23.032L207.135 13.848H212.159L205.471 31.8C204.809 33.592 203.945 34.7973 202.879 35.416C201.833 36.0347 200.575 36.344 199.103 36.344H196.223ZM218.874 31L227.386 18.52L219.802 7.672H225.658L230.554 15.288H230.682L235.578 7.672H241.434L233.946 18.488L242.458 31H236.538L230.682 22.072H230.554L224.666 31H218.874Z" fill="#0A0913"/>
<defs>
<linearGradient id="paint0_linear_4733_14838" x1="21.0381" y1="21.0381" x2="-3.63336" y2="8.70239" gradientUnits="userSpaceOnUse">
<stop stop-color="#6A4AFC"/>
<stop offset="1" stop-color="#FF8762"/>
</linearGradient>
</defs>
</svg>
